<mxfile host="app.diagrams.net" modified="2023-08-31T13:49:09.051Z" agent="Mozilla/5.0 (Windows NT 10.0; Win64; x64) AppleWebKit/537.36 (KHTML, like Gecko) Chrome/116.0.0.0 Safari/537.36 Edg/116.0.1938.62" etag="-6Iqd3tCohjTrlyKBxh5" version="21.6.9" type="github">
  <diagram name="Page-1" id="XMyKWoECH2PxrdK3HtZv">
    <mxGraphModel dx="2924" dy="764" grid="1" gridSize="10" guides="1" tooltips="1" connect="1" arrows="1" fold="1" page="1" pageScale="1" pageWidth="850" pageHeight="1100" math="0" shadow="0">
      <root>
        <mxCell id="0" />
        <mxCell id="1" parent="0" />
        <mxCell id="bUxsjrJknlMFWzwNKWVE-9" style="edgeStyle=orthogonalEdgeStyle;rounded=0;orthogonalLoop=1;jettySize=auto;html=1;entryX=0.16;entryY=0.55;entryDx=0;entryDy=0;entryPerimeter=0;" edge="1" parent="1" source="bUxsjrJknlMFWzwNKWVE-1" target="bUxsjrJknlMFWzwNKWVE-6">
          <mxGeometry relative="1" as="geometry" />
        </mxCell>
        <mxCell id="bUxsjrJknlMFWzwNKWVE-19" style="edgeStyle=orthogonalEdgeStyle;rounded=0;orthogonalLoop=1;jettySize=auto;html=1;entryX=1;entryY=0.5;entryDx=0;entryDy=0;entryPerimeter=0;" edge="1" parent="1" source="bUxsjrJknlMFWzwNKWVE-1" target="bUxsjrJknlMFWzwNKWVE-18">
          <mxGeometry relative="1" as="geometry" />
        </mxCell>
        <mxCell id="bUxsjrJknlMFWzwNKWVE-1" value="Microservice 1&lt;br&gt;" style="rounded=0;whiteSpace=wrap;html=1;" vertex="1" parent="1">
          <mxGeometry x="120" y="290" width="120" height="60" as="geometry" />
        </mxCell>
        <mxCell id="bUxsjrJknlMFWzwNKWVE-7" style="edgeStyle=orthogonalEdgeStyle;rounded=0;orthogonalLoop=1;jettySize=auto;html=1;entryX=0.55;entryY=0.95;entryDx=0;entryDy=0;entryPerimeter=0;" edge="1" parent="1" source="bUxsjrJknlMFWzwNKWVE-2" target="bUxsjrJknlMFWzwNKWVE-6">
          <mxGeometry relative="1" as="geometry" />
        </mxCell>
        <mxCell id="bUxsjrJknlMFWzwNKWVE-2" value="Microservice 2&lt;br&gt;" style="rounded=0;whiteSpace=wrap;html=1;" vertex="1" parent="1">
          <mxGeometry x="380" y="490" width="120" height="60" as="geometry" />
        </mxCell>
        <mxCell id="bUxsjrJknlMFWzwNKWVE-8" style="edgeStyle=orthogonalEdgeStyle;rounded=0;orthogonalLoop=1;jettySize=auto;html=1;entryX=0.875;entryY=0.5;entryDx=0;entryDy=0;entryPerimeter=0;" edge="1" parent="1" source="bUxsjrJknlMFWzwNKWVE-3" target="bUxsjrJknlMFWzwNKWVE-6">
          <mxGeometry relative="1" as="geometry" />
        </mxCell>
        <mxCell id="bUxsjrJknlMFWzwNKWVE-3" value="Microservice 3" style="rounded=0;whiteSpace=wrap;html=1;" vertex="1" parent="1">
          <mxGeometry x="620" y="290" width="120" height="60" as="geometry" />
        </mxCell>
        <mxCell id="bUxsjrJknlMFWzwNKWVE-6" value="Spinal" style="ellipse;shape=cloud;whiteSpace=wrap;html=1;" vertex="1" parent="1">
          <mxGeometry x="380" y="290" width="120" height="80" as="geometry" />
        </mxCell>
        <mxCell id="bUxsjrJknlMFWzwNKWVE-15" style="edgeStyle=orthogonalEdgeStyle;rounded=0;orthogonalLoop=1;jettySize=auto;html=1;entryX=0.5;entryY=0;entryDx=0;entryDy=0;" edge="1" parent="1" source="bUxsjrJknlMFWzwNKWVE-11" target="bUxsjrJknlMFWzwNKWVE-14">
          <mxGeometry relative="1" as="geometry" />
        </mxCell>
        <mxCell id="bUxsjrJknlMFWzwNKWVE-11" value="LAUNCHPAD" style="rounded=1;whiteSpace=wrap;html=1;" vertex="1" parent="1">
          <mxGeometry x="120" y="30" width="670" height="60" as="geometry" />
        </mxCell>
        <mxCell id="bUxsjrJknlMFWzwNKWVE-16" style="edgeStyle=orthogonalEdgeStyle;rounded=0;orthogonalLoop=1;jettySize=auto;html=1;entryX=0.5;entryY=0;entryDx=0;entryDy=0;" edge="1" parent="1" source="bUxsjrJknlMFWzwNKWVE-14" target="bUxsjrJknlMFWzwNKWVE-1">
          <mxGeometry relative="1" as="geometry" />
        </mxCell>
        <mxCell id="bUxsjrJknlMFWzwNKWVE-17" style="edgeStyle=orthogonalEdgeStyle;rounded=0;orthogonalLoop=1;jettySize=auto;html=1;entryX=0.5;entryY=0;entryDx=0;entryDy=0;" edge="1" parent="1" source="bUxsjrJknlMFWzwNKWVE-14" target="bUxsjrJknlMFWzwNKWVE-3">
          <mxGeometry relative="1" as="geometry" />
        </mxCell>
        <mxCell id="bUxsjrJknlMFWzwNKWVE-14" value="Backend for frontend" style="rounded=0;whiteSpace=wrap;html=1;" vertex="1" parent="1">
          <mxGeometry x="395" y="150" width="120" height="60" as="geometry" />
        </mxCell>
        <mxCell id="bUxsjrJknlMFWzwNKWVE-18" value="" style="shape=cylinder3;whiteSpace=wrap;html=1;boundedLbl=1;backgroundOutline=1;size=15;" vertex="1" parent="1">
          <mxGeometry x="-60" y="280" width="60" height="80" as="geometry" />
        </mxCell>
        <mxCell id="bUxsjrJknlMFWzwNKWVE-23" style="edgeStyle=orthogonalEdgeStyle;rounded=0;orthogonalLoop=1;jettySize=auto;html=1;entryX=0;entryY=0.5;entryDx=0;entryDy=0;" edge="1" parent="1" source="bUxsjrJknlMFWzwNKWVE-21" target="bUxsjrJknlMFWzwNKWVE-22">
          <mxGeometry relative="1" as="geometry" />
        </mxCell>
        <mxCell id="bUxsjrJknlMFWzwNKWVE-21" value="CDSB Server" style="rounded=0;whiteSpace=wrap;html=1;" vertex="1" parent="1">
          <mxGeometry x="-520" y="690" width="310" height="320" as="geometry" />
        </mxCell>
        <mxCell id="bUxsjrJknlMFWzwNKWVE-34" style="edgeStyle=orthogonalEdgeStyle;rounded=0;orthogonalLoop=1;jettySize=auto;html=1;entryX=0;entryY=0.5;entryDx=0;entryDy=0;" edge="1" parent="1" source="bUxsjrJknlMFWzwNKWVE-22" target="bUxsjrJknlMFWzwNKWVE-30">
          <mxGeometry relative="1" as="geometry">
            <Array as="points">
              <mxPoint x="-80" y="1040" />
            </Array>
          </mxGeometry>
        </mxCell>
        <mxCell id="bUxsjrJknlMFWzwNKWVE-22" value="RabbitMQ" style="rounded=0;whiteSpace=wrap;html=1;" vertex="1" parent="1">
          <mxGeometry x="-140" y="820" width="120" height="60" as="geometry" />
        </mxCell>
        <mxCell id="bUxsjrJknlMFWzwNKWVE-25" style="edgeStyle=orthogonalEdgeStyle;rounded=0;orthogonalLoop=1;jettySize=auto;html=1;entryX=1;entryY=0.5;entryDx=0;entryDy=0;" edge="1" parent="1" source="bUxsjrJknlMFWzwNKWVE-24" target="bUxsjrJknlMFWzwNKWVE-22">
          <mxGeometry relative="1" as="geometry" />
        </mxCell>
        <mxCell id="bUxsjrJknlMFWzwNKWVE-27" style="edgeStyle=orthogonalEdgeStyle;rounded=0;orthogonalLoop=1;jettySize=auto;html=1;entryX=0;entryY=0.5;entryDx=0;entryDy=0;entryPerimeter=0;" edge="1" parent="1" source="bUxsjrJknlMFWzwNKWVE-24" target="bUxsjrJknlMFWzwNKWVE-28">
          <mxGeometry relative="1" as="geometry">
            <mxPoint x="380" y="850" as="targetPoint" />
          </mxGeometry>
        </mxCell>
        <mxCell id="bUxsjrJknlMFWzwNKWVE-24" value="CDSB MS" style="rounded=0;whiteSpace=wrap;html=1;" vertex="1" parent="1">
          <mxGeometry x="150" y="820" width="120" height="60" as="geometry" />
        </mxCell>
        <mxCell id="bUxsjrJknlMFWzwNKWVE-28" value="" style="shape=cylinder3;whiteSpace=wrap;html=1;boundedLbl=1;backgroundOutline=1;size=15;" vertex="1" parent="1">
          <mxGeometry x="410" y="810" width="60" height="80" as="geometry" />
        </mxCell>
        <mxCell id="bUxsjrJknlMFWzwNKWVE-29" value="" style="endArrow=none;dashed=1;html=1;dashPattern=1 3;strokeWidth=2;rounded=0;fillColor=#f8cecc;strokeColor=#b85450;" edge="1" parent="1">
          <mxGeometry width="50" height="50" relative="1" as="geometry">
            <mxPoint x="210" y="910" as="sourcePoint" />
            <mxPoint x="210" y="770" as="targetPoint" />
          </mxGeometry>
        </mxCell>
        <mxCell id="bUxsjrJknlMFWzwNKWVE-35" style="edgeStyle=orthogonalEdgeStyle;rounded=0;orthogonalLoop=1;jettySize=auto;html=1;entryX=0.07;entryY=0.4;entryDx=0;entryDy=0;entryPerimeter=0;" edge="1" parent="1" source="bUxsjrJknlMFWzwNKWVE-30" target="bUxsjrJknlMFWzwNKWVE-32">
          <mxGeometry relative="1" as="geometry" />
        </mxCell>
        <mxCell id="bUxsjrJknlMFWzwNKWVE-30" value="CDSB Consumer" style="rounded=0;whiteSpace=wrap;html=1;" vertex="1" parent="1">
          <mxGeometry y="1010" width="120" height="60" as="geometry" />
        </mxCell>
        <mxCell id="bUxsjrJknlMFWzwNKWVE-32" value="Spinal" style="ellipse;shape=cloud;whiteSpace=wrap;html=1;" vertex="1" parent="1">
          <mxGeometry x="210" y="1010" width="120" height="80" as="geometry" />
        </mxCell>
      </root>
    </mxGraphModel>
  </diagram>
</mxfile>
